<svg xmlns="http://www.w3.org/2000/svg" id="Layer_1" data-name="Layer 1" viewBox="1.5317970514297485 1.3330256938934326 89.9981918334961 89.98518371582031"><defs><style>.cls{fill:white;}</style></defs><path class="cls" d="M68.12,33.74a.87.87,0,0,0-.87.87v16a.86.86,0,0,0,.59.81,67.17,67.17,0,0,1,7.67,3.2.86.86,0,0,0,1.25-.77V34.61a.86.86,0,0,0-.86-.87Z"/><path class="cls" d="M84.26,34.61V59.38a.87.87,0,0,0,.36.7q1.91,1.37,3.72,2.89a45.07,45.07,0,0,0,1.4-29.23H85.13A.87.87,0,0,0,84.26,34.61Z"/><path class="cls" d="M51.11,33.74a.86.86,0,0,0-.86.87V47.14a.86.86,0,0,0,.8.86,66.21,66.21,0,0,1,7.67,1,.86.86,0,0,0,1-.85V34.61a.86.86,0,0,0-.86-.87Z"/><path class="cls" d="M86.8,26.24a45,45,0,0,0-80.53,0Z"/><path class="cls" d="M17.09,33.74a.86.86,0,0,0-.86.87V53.83a.86.86,0,0,0,1.25.77,67.17,67.17,0,0,1,7.67-3.2.86.86,0,0,0,.59-.81v-16a.87.87,0,0,0-.87-.87Z"/><path class="cls" d="M7.71,69.07a45,45,0,0,0,77.62.05A58.82,58.82,0,0,0,7.71,69.07Z"/><path class="cls" d="M8.73,59.38V34.61a.87.87,0,0,0-.87-.87H3.33A45,45,0,0,0,4.7,62.92c1.2-1,2.42-1.94,3.67-2.84A.87.87,0,0,0,8.73,59.38Z"/><path class="cls" d="M34.1,33.74a.86.86,0,0,0-.86.87V48.14a.86.86,0,0,0,1,.85,66.21,66.21,0,0,1,7.67-1,.86.86,0,0,0,.81-.86V34.61a.87.87,0,0,0-.87-.87Z"/></svg>
